# xmcd
#
# Track frame offsets: 
#        150
#        13966
#        29792
#        65118
#        86530
#        102116
#        131902
#        149650
#        170650
#        191050
#        220599
#        238185
#        257347
#        293127
#        310604
#
# Disc length: 4345 seconds
#
# Revision: 1
# Processed by: cddbd v1.5.2PL0 Copyright (c) Steve Scherf et al.
# Submitted via: ExactAudioCopy v0.99pb5
#
DISCID=e710f70f
DTITLE=Various Artist - My Favourites (Blues Blues Rock) vol.3
DYEAR=2001
DGENRE=Blues-Rock
TTITLE0="Sir" Oliver Mally's Blues Distillery - Stop Telling Me
TTITLE1=Doobie Twisters - Rocket Pocket [Thank You, Stevie Ray]
TTITLE2=Joe Bonamassa - If Heartachers Were Nickels
TTITLE3=Merk Selby - You're Gonna Miss My Love
TTITLE4=Samuel Eddy - Sweetest Revenge
TTITLE5=The Hamsters - Foll For Your Stockings
TTITLE6=Colin James - It Ain't Over Yet
TTITLE7=Innes Sibin - Bloodhounds
TTITLE8=Graig Erickson Project - Shine
TTITLE9=Oriental Spas - In My Head
TTITLE10=Arthur Neilson - Walkin Blues
TTITLE11=Mezz - I Just Wanna Make Love To You
TTITLE12=Gov't Mule - Game Face
TTITLE13=Simple Service - Crazy Cow
TTITLE14=Ken Hensley - Free Spirit
EXTD=
EXTT0=
EXTT1=
EXTT2=
EXTT3=
EXTT4=
EXTT5=
EXTT6=
EXTT7=
EXTT8=
EXTT9=
EXTT10=
EXTT11=
EXTT12=
EXTT13=
EXTT14=
PLAYORDER=
